<svg xmlns="http://www.w3.org/2000/svg" width="128" height="60" viewBox="0 0 128 60" fill="none">
  <g clip-path="url(#clip0_2_128)">
    <path d="M7.86806 42.2677V35.9553L7.34565 39.8473C7.28375 40.3496 7.25171 40.8552 7.2497 41.3614C7.24464 41.5583 7.30164 41.7517 7.41262 41.9144C7.52359 42.0771 7.68293 42.2007 7.86806 42.2677Z" fill="white"/>
    <path d="M7.86807 7.2081L20.1393 9.50062V5.09685L0 0V60L20.1393 54.9778V50.3927L7.86807 52.7706V43.0993C7.02582 43.0993 6.27953 43.0247 5.90638 43.0247C5.29868 43.0247 3.77411 43.1207 2.70798 43.1207C2.38814 43.1207 2.13227 43.0567 2.13227 42.7688C2.13227 42.4809 2.32417 42.5449 2.64401 42.5449C2.96651 42.5506 3.28856 42.5184 3.60353 42.4489C4.49908 42.257 4.75496 41.0094 4.91488 39.9111L7.86807 20.8672V7.2081Z" fill="white"/>
    <path d="M28.3805 16.3143V20.1956L31.1738 39.0476C31.4616 41.0735 31.7815 42.0012 32.741 42.2465C33.3848 42.4564 34.0575 42.5644 34.7346 42.5663C35.0225 42.5663 35.2464 42.5663 35.2464 42.7903C35.2464 43.0142 34.8626 43.1421 34.4148 43.1421C33.6898 43.1421 30.033 43.1421 28.3805 43.0142V46.3943L37.9757 47.4606V14.7576L28.3805 16.3143Z" fill="white"/>
    <path d="M20.1392 9.50077L7.86804 7.20825V20.8674L8.12391 19.1933C8.21987 18.6495 8.41177 18.3616 8.66764 18.3616C8.92351 18.3616 9.11542 18.5216 9.53121 19.3533L17.9217 36.4992V13.5953L20.1392 13.3927L22.698 13.1581V9.95927L20.1392 9.50077Z" fill="#E5E5E5"/>
    <path d="M17.9217 47.2367V42.3744C17.6125 42.9502 17.4739 43.0888 17.282 43.0888C17.0901 43.0888 16.6743 42.4491 16.1519 41.4894C15.3843 40.0073 12.8575 35.0917 12.4737 34.196C12.1859 33.5242 10.2668 29.7389 9.1474 27.3291H9.01947L7.86804 35.9554V42.2678C7.98071 42.3196 8.09868 42.3589 8.21987 42.3851C8.67087 42.4897 9.1322 42.5434 9.59518 42.545C9.85105 42.545 10.0749 42.609 10.0749 42.7689C10.0749 42.9289 9.78708 43.1208 9.30732 43.1208H7.90003V52.792L20.1712 50.4142L22.7299 49.9237V48.0364L20.1712 47.6099L17.9217 47.2367Z" fill="#E5E5E5"/>
    <path d="M22.698 13.1578L20.1392 13.3924L17.9217 13.595V36.5415L18.2735 37.2452L20.1392 33.3746L22.698 28.0432L26.9625 19.161C27.2184 18.6492 27.3783 18.3933 27.6662 18.3933C27.954 18.3933 28.1459 18.7132 28.2419 19.3849L28.3591 20.1846V12.646L22.698 13.1578Z" fill="#E5E5E5"/>
    <path d="M26.9838 42.6515C26.9838 42.4915 27.1118 42.3956 27.3357 42.2996C27.5596 42.2036 27.6235 41.8198 27.4956 40.9241L25.5872 26.9771H25.4593L22.7086 32.607L20.1499 37.8638L18.4761 41.2973L17.9324 42.3636V47.2365L20.1499 47.6097L22.7086 48.0362L28.3911 48.9959V43.0567H27.922C27.1757 42.9607 26.9838 42.8647 26.9838 42.6515Z" fill="#E5E5E5"/>
    <path d="M34.7346 42.6514C34.0575 42.6494 33.3848 42.5415 32.741 42.3315C31.7814 42.0436 31.4616 41.116 31.1737 39.1327L28.3805 20.1954L28.2632 19.3957C28.1672 18.7239 27.9753 18.4041 27.6875 18.4041C27.3996 18.4041 27.2397 18.66 26.9838 19.1718L22.7193 28.054L20.1606 33.3854L18.2948 37.256L17.943 36.5523L9.53123 19.3957C9.11544 18.564 8.92353 18.4041 8.66766 18.4041C8.41179 18.4041 8.21988 18.692 8.12393 19.2358L7.86806 20.8672L4.94685 39.9111C4.78693 40.9774 4.53106 42.2569 3.63551 42.4488C3.32054 42.5183 2.99848 42.5505 2.67599 42.5448C2.35615 42.5448 2.16425 42.6088 2.16425 42.7687C2.16425 42.9287 2.42012 43.1206 2.73996 43.1206C3.80609 43.1206 5.29868 43.0246 5.93836 43.0246C6.31151 43.0246 7.00449 43.0246 7.90004 43.0993H9.30734C9.7871 43.0993 10.075 43.0353 10.075 42.7474C10.075 42.4595 9.81909 42.5448 9.5952 42.5448C9.14292 42.5408 8.69245 42.4871 8.25187 42.3849C8.13068 42.3587 8.01271 42.3193 7.90004 42.2676C7.71492 42.2005 7.55558 42.0769 7.4446 41.9142C7.33362 41.7515 7.27663 41.5581 7.28169 41.3612C7.2837 40.8551 7.31574 40.3495 7.37764 39.8471L7.90004 35.9551L9.05147 27.3289H9.1794C10.2988 29.7387 12.2179 33.524 12.5057 34.1958C12.8895 35.0915 15.4163 40.007 16.1839 41.4892C16.7063 42.4488 17.0261 43.0886 17.314 43.0886C17.6019 43.0886 17.6445 42.95 17.9537 42.3742L18.4974 41.3079L20.1712 37.8745L22.73 32.6177L25.4806 26.9877H25.5872L27.5062 40.956C27.6342 41.8517 27.5062 42.2676 27.3463 42.3315C27.1864 42.3955 26.9945 42.5235 26.9945 42.6834C26.9945 42.8434 27.1864 42.9713 27.922 43.0353H28.3911C30.0436 43.1099 33.7218 43.1632 34.4254 43.1632C34.8732 43.1632 35.257 43.0673 35.257 42.8114C35.257 42.5555 35.0225 42.6514 34.7346 42.6514Z" fill="#363636"/>
    <path d="M44.3512 37.6613C44.2339 37.6613 44.1912 37.6613 44.1379 37.8319L42.9119 40.7535C42.7259 41.1649 42.6106 41.6047 42.5707 42.0544C42.5707 42.4383 42.7839 42.7155 43.4876 42.7155H43.8287C44.0953 42.7155 44.1699 42.7155 44.1699 42.8861C44.1699 43.0567 44.0313 43.0994 43.7754 43.0994C43.0505 43.0994 42.0696 43.0354 41.366 43.0354C41.1208 43.0354 39.8734 43.0994 38.69 43.0994C38.3915 43.0994 38.2529 43.0994 38.2529 42.8861C38.2529 42.6729 38.3488 42.7155 38.5301 42.7155C38.7113 42.7155 39.0525 42.7155 39.2337 42.7155C40.2998 42.5876 40.7156 41.8625 41.1634 40.7962L46.9099 27.5422C47.1871 26.9238 47.3257 26.6892 47.5496 26.6892C47.7734 26.6892 47.8907 26.8811 48.1146 27.3716C48.6583 28.5445 52.3045 37.0642 53.7544 40.3057C54.618 42.225 55.279 42.5236 55.7588 42.6302C56.0719 42.6869 56.3894 42.7155 56.7076 42.7155C56.8889 42.7155 57.0062 42.7155 57.0062 42.8861C57.0062 43.0567 56.8036 43.0994 55.94 43.0994C55.0765 43.0994 53.4559 43.0994 51.6755 43.0994C51.2597 43.0994 50.9932 43.0994 50.9932 42.9288C50.9932 42.7582 51.0785 42.7582 51.313 42.7368C51.3618 42.7224 51.4067 42.6972 51.4445 42.6631C51.4823 42.6291 51.5119 42.587 51.5314 42.54C51.5508 42.4929 51.5595 42.4422 51.5567 42.3914C51.554 42.3406 51.5399 42.291 51.5156 42.2463L49.6925 37.8532C49.678 37.8064 49.6478 37.766 49.6071 37.7388C49.5663 37.7116 49.5174 37.6993 49.4686 37.704L44.3512 37.6613ZM48.9888 36.595C49.0954 36.595 49.1168 36.531 49.0954 36.4671L47.0485 31.2316C47.0485 31.1463 47.0485 31.0397 46.9419 31.0397C46.8352 31.0397 46.8246 31.1463 46.8033 31.2316L44.671 36.4457C44.671 36.531 44.671 36.595 44.7563 36.595H48.9888Z" fill="white"/>
    <path d="M59.3516 42.6515C58.9785 42.5023 58.9039 42.3956 58.9039 41.9265C58.9039 40.7749 58.9998 39.506 59.0211 39.1648C59.0425 38.8236 59.1171 38.621 59.309 38.621C59.5009 38.621 59.5435 38.8129 59.5435 38.9835C59.5618 39.3466 59.6299 39.7054 59.7461 40.0498C59.9833 40.7343 60.4457 41.318 61.0577 41.7054C61.6697 42.0928 62.3951 42.2609 63.1151 42.1824C65.2474 42.1824 66.3135 40.8922 66.3135 39.7832C66.3135 38.6743 65.919 37.7466 63.968 36.3711L62.9019 35.614C60.3112 33.8014 59.4156 32.3299 59.4156 30.6238C59.4156 28.2993 61.5479 26.6359 64.8529 26.6359C65.9088 26.6252 66.9618 26.747 67.9873 26.9984C68.1899 26.9984 68.3072 27.1051 68.3072 27.2437C68.3072 27.3823 68.2219 28.1287 68.2219 29.7815C68.2219 30.24 68.1473 30.4106 67.9554 30.4106C67.7635 30.4106 67.7208 30.2826 67.7208 30.0267C67.6724 29.5114 67.4593 29.0253 67.1131 28.6405C66.7979 28.2744 66.4013 27.9872 65.9551 27.8021C65.5089 27.6169 65.0255 27.5389 64.5437 27.5742C62.8059 27.5742 61.7504 28.4806 61.7504 29.7068C61.7504 30.6771 62.2942 31.4129 64.2452 32.7351L64.8955 33.1829C67.7421 35.1022 68.755 36.5524 68.755 38.5143C68.7577 39.2691 68.5534 40.0102 68.1643 40.657C67.7752 41.3037 67.2162 41.8313 66.5481 42.1824C65.3974 42.7918 64.1073 43.0896 62.8059 43.0461C61.6398 43.1377 60.467 43.0037 59.3516 42.6515Z" fill="white"/>
    <path d="M76.7616 28.182L73.4353 28.2673C72.1346 28.2673 71.6015 28.4166 71.303 28.8858C71.1331 29.1107 71.0033 29.3632 70.9192 29.6322C70.9192 29.8028 70.8126 29.8881 70.674 29.8881C70.5354 29.8881 70.4714 29.7814 70.4714 29.5469C70.4714 29.3123 70.8979 27.265 70.9405 27.0944C70.9832 26.9238 71.0791 26.6892 71.2071 26.6892C71.5186 26.8032 71.8397 26.8888 72.1666 26.9451C72.8169 27.0091 73.6698 27.0517 74.4055 27.0517H83.1584C83.6755 27.0514 84.192 27.0158 84.7043 26.9451C84.9012 26.8988 85.1006 26.8632 85.3014 26.8385C85.4613 26.8385 85.4826 26.9664 85.4826 27.2863C85.4826 27.6062 85.4186 29.2056 85.4186 29.7601C85.4186 29.9734 85.344 30.1013 85.2161 30.1013C85.0881 30.1013 84.9922 29.9947 84.9708 29.6748V29.4402C84.9708 28.8858 84.3205 28.2886 82.3375 28.246L79.5229 28.182V36.9149C79.5229 38.8769 79.5229 40.5616 79.6402 41.4786C79.7042 42.0757 79.8321 42.5449 80.5038 42.6302C80.8821 42.6802 81.263 42.7087 81.6445 42.7155C81.8897 42.7155 81.9963 42.7795 81.9963 42.8861C81.9963 42.9927 81.8258 43.0994 81.5805 43.0994C80.1093 43.0994 78.702 43.0354 78.073 43.0354C77.444 43.0354 76.1539 43.0994 75.2584 43.0994C74.9705 43.0994 74.8213 43.0354 74.8213 42.8861C74.8213 42.7368 74.9066 42.7155 75.1731 42.7155C75.4419 42.716 75.71 42.6874 75.9727 42.6302C76.4205 42.5449 76.5591 42.0757 76.623 41.4573C76.7616 40.519 76.7616 38.8769 76.7616 36.9149V28.182Z" fill="white"/>
    <path d="M90.0243 33.1721C90.0243 29.9733 90.0243 29.3335 90.0243 28.6511C90.0243 27.9687 89.8004 27.5848 89.0434 27.4355C88.7473 27.3882 88.4477 27.3668 88.1479 27.3715C87.892 27.3715 87.7534 27.3715 87.7534 27.1796C87.7534 26.9877 87.9133 26.9877 88.2545 26.9877H90.1202H91.5595C92.2951 26.9877 96.8902 26.9877 97.2953 26.9877C97.6278 26.9619 97.9587 26.9192 98.2868 26.8597C98.4054 26.8224 98.5265 26.7939 98.6493 26.7744C98.7666 26.7744 98.7879 26.8597 98.7879 26.9663C98.7 27.4244 98.6395 27.8873 98.6067 28.3525C98.6067 28.5658 98.5427 29.5041 98.4894 29.76C98.4361 30.0159 98.4254 29.9946 98.2655 29.9946C98.1056 29.9946 98.0523 29.888 98.0523 29.696C98.0537 29.4338 98.0067 29.1735 97.9137 28.9283C97.7538 28.5445 97.5299 28.2885 96.3784 28.1606C95.9946 28.1606 93.5852 28.0753 93.18 28.0753C93.0628 28.0753 93.0201 28.1393 93.0201 28.2885V33.684C93.0201 33.8332 93.0201 33.9185 93.18 33.9185C93.6811 33.9185 96.3784 33.9185 96.8475 33.9185C97.2292 33.9384 97.606 33.8254 97.9137 33.5987C98.0736 33.428 98.1696 33.3214 98.2868 33.3214C98.3092 33.3196 98.3318 33.3228 98.3527 33.3309C98.3737 33.339 98.3926 33.3517 98.408 33.3681C98.4234 33.3845 98.4348 33.4042 98.4415 33.4256C98.4483 33.4471 98.45 33.4698 98.4467 33.492C98.4467 33.62 98.3508 33.9612 98.2655 35.0381C98.2655 35.4647 98.1696 36.3177 98.1696 36.467C98.1696 36.6163 98.1695 36.8722 97.967 36.8722C97.7644 36.8722 97.7538 36.7869 97.7538 36.6802C97.743 36.4227 97.7145 36.1661 97.6685 35.9125C97.5512 35.486 97.2314 35.1661 96.3784 35.0808C95.9413 35.0808 93.6705 35.0168 93.18 35.0168C93.0628 35.0168 93.0414 35.1021 93.0414 35.2301V36.9148C93.0414 37.6399 93.0414 39.6019 93.0414 40.2203C93.0414 41.6918 93.4466 42.0117 95.7921 42.0117C96.5123 42.0507 97.2338 41.9641 97.9243 41.7558C98.5214 41.4998 98.7986 41.052 98.9905 40.1777C98.9905 39.9431 99.0864 39.8578 99.2463 39.8578C99.4063 39.8578 99.4276 40.0284 99.4276 40.2416C99.3501 41.055 99.2075 41.8609 99.0011 42.6514C98.8412 43.2059 98.628 43.2059 97.7644 43.2059C96.0373 43.2059 94.7792 43.2059 93.7877 43.1419C92.7962 43.078 92.0926 43.078 91.4103 43.078C91.1544 43.078 90.6533 43.078 90.0989 43.078C89.5445 43.078 88.9688 43.078 88.5104 43.078C88.2119 43.078 88.0519 43.014 88.0519 42.8647C88.0519 42.7154 88.1479 42.6941 88.4251 42.6941C88.701 42.6944 88.9761 42.6658 89.246 42.6088C89.7044 42.5235 89.8217 42.0543 89.9177 41.4359C90.0243 40.5402 90.0243 38.8555 90.0243 36.8935V33.1721Z" fill="white"/>
    <path d="M103.223 33.1722C103.223 29.9734 103.223 29.3336 103.223 28.6512C103.223 27.9687 102.989 27.5849 102.232 27.4356C101.936 27.3874 101.636 27.366 101.336 27.3716C101.091 27.3716 100.952 27.3716 100.952 27.1797C100.952 26.9878 101.112 26.9878 101.453 26.9878C102.669 26.9878 104.119 27.0517 104.598 27.0517C105.377 27.0517 107.114 26.9878 107.797 26.9878C109.277 26.8794 110.757 27.1977 112.061 27.9048C112.534 28.2332 112.922 28.6695 113.192 29.1775C113.463 29.6856 113.609 30.2508 113.618 30.8264C113.618 32.4045 112.914 33.8546 110.601 35.5927C112.637 37.9812 114.215 39.8578 115.569 41.2014C116.229 41.9386 117.106 42.4465 118.074 42.6515C118.285 42.6908 118.499 42.7123 118.714 42.7155C118.895 42.7155 118.991 42.7795 118.991 42.8861C118.991 42.9927 118.831 43.0994 118.554 43.0994H116.422C115.583 43.1752 114.739 43.0357 113.97 42.6942C112.694 41.8875 111.603 40.8189 110.771 39.5593C109.854 38.3864 108.799 36.9362 108.511 36.6163C108.457 36.562 108.392 36.5203 108.32 36.4945C108.248 36.4687 108.171 36.4593 108.095 36.4671H106.102C105.984 36.4671 105.92 36.4671 105.92 36.6377V36.9362C105.92 38.9195 105.92 40.6042 106.027 41.4999C106.102 42.1184 106.24 42.5662 106.923 42.6728C107.264 42.6728 107.775 42.7581 108.053 42.7581C108.33 42.7581 108.319 42.8221 108.319 42.9288C108.319 43.0354 108.159 43.142 107.861 43.142C106.539 43.142 104.844 43.078 104.492 43.078C104.14 43.078 102.615 43.142 101.698 43.142C101.4 43.142 101.24 43.078 101.24 42.9288C101.24 42.7795 101.336 42.7581 101.613 42.7581C101.889 42.7584 102.164 42.7298 102.434 42.6728C102.893 42.5875 103.01 42.1184 103.095 41.4999C103.212 40.6042 103.212 38.9195 103.212 36.9575L103.223 33.1722ZM105.931 34.857C105.931 35.0809 105.931 35.1662 106.134 35.2302C106.701 35.3796 107.285 35.4514 107.871 35.4434C108.441 35.5182 109.018 35.3899 109.503 35.0809C109.979 34.7043 110.352 34.2138 110.589 33.6548C110.826 33.0957 110.918 32.486 110.857 31.882C110.911 31.3896 110.86 30.8914 110.708 30.4199C110.557 29.9483 110.307 29.5142 109.976 29.1458C109.645 28.7774 109.24 28.4831 108.787 28.2821C108.334 28.0811 107.844 27.9779 107.349 27.9794C106.942 27.9613 106.534 27.9899 106.134 28.0647C105.974 28.0647 105.931 28.1927 105.931 28.3633V34.857Z" fill="white"/>
    <path d="M122.605 33.1721C122.605 29.9732 122.605 29.3334 122.605 28.651C122.605 27.9686 122.328 27.5847 121.827 27.4568C121.558 27.3962 121.282 27.3676 121.006 27.3715C120.772 27.3715 120.633 27.3715 120.633 27.1582C120.633 26.945 120.814 26.9876 121.187 26.9876C122.062 26.9876 123.501 27.0516 124.162 27.0516C124.823 27.0516 126.092 26.9876 126.966 26.9876C127.264 26.9876 127.446 26.9876 127.446 27.1582C127.446 27.3288 127.307 27.3715 127.083 27.3715C126.851 27.3735 126.619 27.3949 126.39 27.4355C125.772 27.5421 125.591 27.9046 125.548 28.651C125.505 29.3974 125.548 29.9306 125.548 33.1721V36.9148C125.548 38.9834 125.548 40.6681 125.644 41.5851C125.708 42.1609 125.868 42.5448 126.561 42.6514C126.95 42.7022 127.341 42.7307 127.733 42.7367C127.979 42.7367 128.096 42.8007 128.096 42.9073C128.096 43.0139 127.915 43.1205 127.659 43.1205C126.145 43.1205 124.706 43.0566 124.087 43.0566C123.469 43.0566 122.115 43.1205 121.187 43.1205C120.889 43.1205 120.729 43.0566 120.729 42.9073C120.729 42.758 120.825 42.7367 121.102 42.7367C121.378 42.737 121.653 42.7084 121.923 42.6514C122.382 42.5661 122.52 42.2035 122.595 41.5851C122.701 40.6894 122.701 39.0047 122.701 36.9361L122.605 33.1721Z" fill="white"/>
    <path d="M57.9444 50.5953C57.7011 50.3388 57.4086 50.1338 57.0844 49.9928C56.7602 49.8517 56.4109 49.7774 56.0573 49.7743C55.3759 49.7743 54.7224 50.045 54.2405 50.5269C53.7587 51.0088 53.4879 51.6625 53.4879 52.344C53.4879 53.0255 53.7587 53.6792 54.2405 54.1611C54.7224 54.643 55.3759 54.9138 56.0573 54.9138C56.4094 54.9054 56.7564 54.8277 57.0784 54.685C57.4004 54.5422 57.6911 54.3374 57.9337 54.0821V54.9457C57.457 55.2941 56.8932 55.5038 56.3048 55.5514C55.7163 55.599 55.1261 55.4829 54.5996 55.2157C54.0731 54.9485 53.6308 54.5408 53.3217 54.0377C53.0125 53.5347 52.8487 52.9558 52.8483 52.3653C52.8483 51.5169 53.1852 50.7033 53.7851 50.1034C54.3849 49.5035 55.1984 49.1665 56.0467 49.1665C56.7169 49.1585 57.3704 49.3763 57.9018 49.7849L57.9444 50.5953Z" fill="white"/>
    <path d="M61.0895 53.6556C61.0852 53.8244 61.1149 53.9924 61.1769 54.1494C61.2388 54.3065 61.3318 54.4495 61.4502 54.5699C61.5685 54.6903 61.7099 54.7856 61.8659 54.8502C62.0219 54.9148 62.1893 54.9473 62.3582 54.9458C62.611 54.9386 62.8565 54.8595 63.066 54.7179C63.2756 54.5763 63.4405 54.378 63.5416 54.1461L64.096 54.466C63.9306 54.7941 63.6754 55.0684 63.3603 55.2572C63.0451 55.446 62.6828 55.5413 62.3155 55.5323C62.0571 55.5357 61.8008 55.4858 61.5627 55.3855C61.3245 55.2852 61.1096 55.1369 60.9314 54.9497C60.7532 54.7625 60.6157 54.5405 60.5273 54.2976C60.4389 54.0548 60.4016 53.7963 60.4178 53.5383C60.3846 53.2719 60.4083 53.0015 60.4874 52.7449C60.5664 52.4883 60.699 52.2514 60.8763 52.0499C61.0537 51.8483 61.2718 51.6867 61.5162 51.5757C61.7606 51.4646 62.0258 51.4067 62.2942 51.4058C62.5601 51.4093 62.8222 51.4694 63.0632 51.5819C63.3041 51.6945 63.5184 51.8569 63.6918 52.0586C63.8652 52.2602 63.9937 52.4965 64.0689 52.7516C64.1441 53.0067 64.1642 53.2749 64.128 53.5383L61.0895 53.6556ZM63.435 53.0905C63.3992 52.8142 63.2655 52.56 63.0581 52.374C62.8506 52.1881 62.5834 52.0829 62.3049 52.0775C62.0208 52.0831 61.7475 52.1871 61.5317 52.3719C61.3158 52.5567 61.1708 52.8107 61.1215 53.0905H63.435Z" fill="white"/>
    <path d="M67.3477 52.0455C67.4653 51.8702 67.6239 51.7262 67.8096 51.6259C67.9954 51.5256 68.2027 51.472 68.4138 51.4697C69.4799 51.4697 69.7252 52.2375 69.7252 53.1438V55.447H69.0642V53.3144C69.0642 52.696 69.0641 52.1308 68.2539 52.1308C67.4436 52.1308 67.2944 52.9732 67.2944 53.6663V55.447H66.6334V51.5764H67.2944L67.3477 52.0455Z" fill="white"/>
    <path d="M73.3713 55.4469H72.7103V52.1841H72.3052V51.5763H72.7103V50.1794H73.3713V51.5763H74.0643V52.1841H73.3713V55.4469Z" fill="white"/>
    <path d="M81.8684 53.6558C81.864 53.8265 81.8944 53.9962 81.9576 54.1547C82.0209 54.3132 82.1158 54.4572 82.2365 54.5779C82.3571 54.6986 82.5011 54.7935 82.6596 54.8568C82.8181 54.9201 82.9878 54.9504 83.1584 54.946C83.4112 54.9388 83.6567 54.8597 83.8663 54.7181C84.0759 54.5765 84.2408 54.3782 84.3418 54.1463L84.8962 54.4662C84.7308 54.7943 84.4757 55.0686 84.1605 55.2574C83.8453 55.4462 83.483 55.5416 83.1158 55.5325C82.6954 55.5796 82.2707 55.496 81.8995 55.2931C81.5283 55.0901 81.2287 54.7777 81.0414 54.3983C80.8542 54.019 80.7884 53.5911 80.853 53.1729C80.9177 52.7548 81.1096 52.3668 81.4026 52.0617C81.6957 51.7566 82.0757 51.5492 82.4908 51.4679C82.906 51.3865 83.3361 51.4351 83.7226 51.607C84.1091 51.7789 84.4333 52.0658 84.6509 52.4286C84.8686 52.7914 84.9691 53.2125 84.9389 53.6345L81.8684 53.6558ZM84.2246 53.0907C84.1844 52.8144 84.0479 52.5612 83.8392 52.3758C83.6304 52.1905 83.3629 52.0849 83.0838 52.0777C82.8004 52.0816 82.5275 52.1853 82.313 52.3706C82.0985 52.5559 81.9562 52.8109 81.9111 53.0907H84.2246Z" fill="white"/>
    <path d="M77.5825 51.9922C77.6721 51.8406 77.7979 51.7135 77.9486 51.6223C78.0993 51.5311 78.2702 51.4787 78.4461 51.4697C78.6551 51.4714 78.859 51.5344 79.0325 51.651L78.7233 52.2481C78.6145 52.1489 78.4757 52.0888 78.3288 52.0775C77.6039 52.0775 77.5719 53.0052 77.5719 53.5063V55.447H76.9109V51.5764H77.5719L77.5825 51.9922Z" fill="white"/>
    <path d="M91.1758 55.447H90.4828V49.2306H91.5489C92.0824 49.1813 92.6182 49.2967 93.0842 49.5611C93.3066 49.7237 93.4867 49.9374 93.6092 50.1842C93.7317 50.4311 93.7929 50.7038 93.7878 50.9793C93.7916 51.2306 93.7411 51.4797 93.6399 51.7097C93.5387 51.9397 93.3892 52.1452 93.2014 52.3122C92.7721 52.6216 92.2471 52.7689 91.7195 52.728H91.2184L91.1758 55.447ZM91.1758 52.0882H91.6875C92.4551 52.0882 93.1055 51.8536 93.1055 50.9686C93.1055 50.0836 92.2952 49.9023 91.485 49.9023H91.2291L91.1758 52.0882Z" fill="white"/>
    <path d="M95.2697 53.5168C95.2697 53.114 95.3891 52.7203 95.6129 52.3854C95.8366 52.0504 96.1547 51.7894 96.5268 51.6353C96.8989 51.4811 97.3083 51.4408 97.7033 51.5194C98.0983 51.5979 98.4611 51.7919 98.7459 52.0767C99.0307 52.3616 99.2246 52.7245 99.3032 53.1195C99.3818 53.5146 99.3415 53.9241 99.1873 54.2962C99.0332 54.6684 98.7722 54.9864 98.4373 55.2102C98.1025 55.434 97.7088 55.5534 97.306 55.5534C96.766 55.5534 96.248 55.3389 95.8661 54.9569C95.4843 54.575 95.2697 54.057 95.2697 53.5168ZM95.9307 53.5168C95.9412 53.7864 96.0306 54.0469 96.188 54.266C96.3453 54.485 96.5636 54.653 96.8156 54.749C97.0676 54.845 97.3424 54.8647 97.6055 54.8058C97.8687 54.7468 98.1088 54.6118 98.2958 54.4175C98.4828 54.2232 98.6086 53.9781 98.6575 53.7129C98.7064 53.4476 98.6762 53.1738 98.5708 52.9256C98.4653 52.6773 98.2892 52.4656 98.0643 52.3166C97.8394 52.1677 97.5757 52.0882 97.306 52.088C97.1236 52.0907 96.9435 52.1298 96.7763 52.2028C96.609 52.2759 96.458 52.3814 96.332 52.5134C96.206 52.6454 96.1075 52.8012 96.0423 52.9716C95.977 53.142 95.9464 53.3238 95.952 53.5062L95.9307 53.5168Z" fill="white"/>
    <path d="M102.818 50.1156C102.818 50.2401 102.768 50.3594 102.681 50.4474C102.593 50.5354 102.473 50.5848 102.349 50.5848C102.224 50.5848 102.105 50.5354 102.017 50.4474C101.929 50.3594 101.88 50.2401 101.88 50.1156C101.88 49.9912 101.929 49.8719 102.017 49.7839C102.105 49.6959 102.224 49.6465 102.349 49.6465C102.473 49.6465 102.593 49.6959 102.681 49.7839C102.768 49.8719 102.818 49.9912 102.818 50.1156ZM102.679 55.4471H102.018V51.5765H102.679V55.4471Z" fill="white"/>
    <path d="M106.358 52.0455C106.475 51.8702 106.634 51.7262 106.819 51.6259C107.005 51.5256 107.213 51.472 107.424 51.4697C108.49 51.4697 108.746 52.2375 108.746 53.1438V55.447H108.085V53.3144C108.085 52.696 108.031 52.1308 107.264 52.1308C106.496 52.1308 106.304 52.9732 106.304 53.6663V55.447H105.643V51.5764H106.304L106.358 52.0455Z" fill="white"/>
    <path d="M112.381 55.4469H111.731V52.1841H111.326V51.5763H111.731V50.1794H112.381V51.5763H113.074V52.1841H112.381V55.4469Z" fill="white"/>
  </g>
  <defs>
    <clipPath id="clip0_2_128">
      <rect width="128" height="60" fill="white"/>
    </clipPath>
  </defs>
</svg>