<svg width="20" height="20" viewBox="0 0 20 20" fill="none" xmlns="http://www.w3.org/2000/svg">
<g clip-path="url(#clip0_1_91)">
<path d="M15.8333 3.75C15.8333 2.75544 15.4382 1.80161 14.735 1.09835C14.0317 0.395088 13.0779 0 12.0833 0C11.0888 0 10.1349 0.395088 9.43168 1.09835C8.72842 1.80161 8.33333 2.75544 8.33333 3.75V5H10V3.75C10 3.19747 10.2195 2.66756 10.6102 2.27686C11.0009 1.88616 11.5308 1.66667 12.0833 1.66667C12.6359 1.66667 13.1658 1.88616 13.5565 2.27686C13.9472 2.66756 14.1667 3.19747 14.1667 3.75V10H0V13.3333C0.00132321 14.438 0.440735 15.497 1.22185 16.2782C2.00296 17.0593 3.062 17.4987 4.16667 17.5V20H5.83333V17.5H14.1667V20H15.8333V17.5C16.938 17.4987 17.997 17.0593 18.7782 16.2782C19.5593 15.497 19.9987 14.438 20 13.3333V10H15.8333V3.75Z" fill="#C79358"/>
</g>
<defs>
<clipPath id="clip0_1_91">
<rect width="20" height="20" fill="white"/>
</clipPath>
</defs>
</svg>
