<svg width="20" height="20" viewBox="0 0 20 20" fill="none" xmlns="http://www.w3.org/2000/svg">
<g clip-path="url(#clip0_1_81)">
<path d="M20 10.8333H1.66667V3.33333C1.66667 3.11232 1.57887 2.90036 1.42259 2.74408C1.26631 2.5878 1.05435 2.5 0.833333 2.5C0.61232 2.5 0.400358 2.5878 0.244078 2.74408C0.0877974 2.90036 0 3.11232 0 3.33333L0 17.5C0 17.721 0.0877974 17.933 0.244078 18.0893C0.400358 18.2455 0.61232 18.3333 0.833333 18.3333C1.05435 18.3333 1.26631 18.2455 1.42259 18.0893C1.57887 17.933 1.66667 17.721 1.66667 17.5V15.8333H18.3333V17.5C18.3333 17.721 18.4211 17.933 18.5774 18.0893C18.7337 18.2455 18.9457 18.3333 19.1667 18.3333C19.3877 18.3333 19.5996 18.2455 19.7559 18.0893C19.9122 17.933 20 17.721 20 17.5V10.8333Z" fill="#C79358"/>
<path d="M5.83333 9.16675C5.33888 9.16675 4.85553 9.02013 4.44441 8.74542C4.03328 8.47072 3.71285 8.08027 3.52363 7.62346C3.33442 7.16664 3.28491 6.66398 3.38137 6.17902C3.47783 5.69407 3.71594 5.24861 4.06557 4.89898C4.4152 4.54935 4.86066 4.31125 5.34561 4.21479C5.83056 4.11832 6.33323 4.16783 6.79004 4.35705C7.24686 4.54627 7.6373 4.8667 7.91201 5.27782C8.18671 5.68895 8.33333 6.1723 8.33333 6.66675C8.33333 7.32979 8.06994 7.96568 7.6011 8.43452C7.13226 8.90336 6.49637 9.16675 5.83333 9.16675Z" fill="#C79358"/>
<path d="M20 9.16667H10.8333C10.6123 9.16667 10.4004 9.07887 10.2441 8.92259C10.0878 8.76631 10 8.55435 10 8.33333V5.83333C10 5.61232 10.0878 5.40036 10.2441 5.24408C10.4004 5.0878 10.6123 5 10.8333 5H17.5C18.163 5 18.7989 5.26339 19.2678 5.73223C19.7366 6.20107 20 6.83696 20 7.5V9.16667Z" fill="#C79358"/>
</g>
<defs>
<clipPath id="clip0_1_81">
<rect width="20" height="20" fill="white"/>
</clipPath>
</defs>
</svg>
